<svg xmlns="http://www.w3.org/2000/svg" width="55.5" height="55.5" viewBox="-4.553 0 55.5 55.5"><defs><linearGradient id="a" y1=".5" x2="1" y2=".5" gradientUnits="objectBoundingBox"><stop offset=".46" stop-color="#80beea"/><stop offset="1" stop-color="#40e0df"/></linearGradient></defs><path data-name="Path 139" d="M1.351 55H45.04a.854.854 0 00.854-.858c-.062-14.258-.126-28.477-.185-42.735H35.99c-.827 0-1.061-.238-1.063-1.079V.5H1.545A1.045 1.045 0 00.5 1.55v52.6a.854.854 0 00.851.85zM36.859 1.778v7.8h7.282z" fill="#f6f6f6" stroke="#0c0c0c"/><path data-name="Path 140" d="M16.279 36.605a2.074 2.074 0 00.3.069c3.814 0 7.629.047 11.444-.029.8-.016 1.368-.126 1.817.732.3.567.953.934 1.368 1.455a1.161 1.161 0 01.165.909c-.048.174-.439.328-.69.355a7.355 7.355 0 01-1.569.006c-1.206-.133-2.264.008-2.882 1.231-.018.035-.06.059-.091.088a1.251 1.251 0 00-.1 1.383c.337.395.69.775 1.035 1.162 1.006 1.132 2.027 2.255 3.018 3.405a1.6 1.6 0 002.251.119c1.571-1.571 3.153-3.131 4.7-4.725a1.423 1.423 0 00.368-.912q-.008-2.66-.126-5.321a1.481 1.481 0 00-.387-.9c-1.048-1.061-2.145-2.074-3.212-3.117-.943-.922-1.867-1.862-2.8-2.8-2.03-2.03-4.066-4.054-6.08-6.1a1.2 1.2 0 01-.314-.755c-.028-1.718-.016-3.437-.01-5.156a.934.934 0 01.1-.531c.546-.754 1.12-1.478 1.685-2.213l3.438-4.483a1.266 1.266 0 00-.228-.053q-8.267 0-16.535.01a1.028 1.028 0 00-.629.3q-2.44 2.406-4.844 4.847a1.113 1.113 0 00-.3.7c-.024 1.822-.016 3.647-.008 5.469a.88.88 0 00.126.519q1.592 1.943 3.218 3.859c.83.981 1.689 1.938 2.515 2.917 1.056 1.246 2.113 2.494 3.135 3.773a1.485 1.485 0 01.285.889c-.017.96-.103 1.913-.163 2.898zm10.754 1.5c-4.877 0-9.57 0-14.262.009a.754.754 0 00-.482.207 17.893 17.893 0 01-1.748 1.82 3.392 3.392 0 00-1.383 3.48 2.491 2.491 0 00.009.377 2.058 2.058 0 00.327.754q1.368 1.432 2.8 2.8a1.293 1.293 0 00.81.319q7.325.028 14.649.013c.169 0 .337-.024.6-.043-1.159-1.291-2.24-2.495-3.322-3.7a1.794 1.794 0 01-.578-1.5c.06-.473-.02-.965.025-1.442a1.291 1.291 0 01.292-.7c.701-.783 1.429-1.519 2.263-2.399zm4-26.8c-.543.755-.986 1.422-1.471 2.054-.931 1.208-1.886 2.4-2.828 3.6a.45.45 0 000 .692c.714.778 1.383 1.593 2.09 2.382.062.069.229.059.347.063 1.795.045 3.589.05 5.38.142 1.029.052 1.929-.024 2.408-1.1.024-.054.087-.089.126-.135a1.574 1.574 0 00-.019-2.056c-1.966-1.867-3.945-3.708-6.036-5.651zm-5.156 7.8v3.282a.429.429 0 00.106.275q.9.917 1.823 1.817c.844.82 1.7 1.635 2.544 2.445.252.239.489.483.733.727q3.556 3.556 7.116 7.105a1.587 1.587 0 01.5 1.207c.019 2.192.1 4.384.094 6.576a1.713 1.713 0 01-.433 1.088c-1.749 1.8-3.534 3.575-5.327 5.337a1.177 1.177 0 01-.755.311q-9.994.026-19.987 0a1.19 1.19 0 01-.754-.311q-1.761-1.7-3.466-3.466a1.23 1.23 0 01-.3-.755c-.033-1.132-.03-2.264 0-3.4a1.327 1.327 0 01.251-.791q1.659-1.792 3.388-3.521a1.344 1.344 0 01.829-.313c.873-.04 1.748-.015 2.681-.015a22.188 22.188 0 00-.033-2.677 2.588 2.588 0 00-.7-1.125c-.993-1.191-2.02-2.354-3.018-3.54-1.509-1.784-2.907-3.664-4.527-5.332a3.415 3.415 0 01-.9-2.759c.025-1.822.02-3.647 0-5.468a1.481 1.481 0 01.488-1.152c1.761-1.738 3.491-3.5 5.261-5.226a1.436 1.436 0 01.91-.37c5.678-.023 11.355.02 17.033-.049a3.328 3.328 0 012.516 1.005c1.771 1.669 3.56 3.319 5.347 4.974.15.138.332.241.49.371a2.654 2.654 0 011.075 2.3 4.054 4.054 0 01-1.093 3.007 2.6 2.6 0 01-2.186.958c-2.378-.089-4.76-.093-7.14-.153a1.021 1.021 0 01-.641-.274c-.631-.647-1.229-1.333-1.928-2.1z"/><path data-name="Path 141" d="M146.267 128.259c.06-.985.146-1.938.163-2.892a1.485 1.485 0 00-.285-.889c-1.022-1.274-2.079-2.521-3.135-3.773-.831-.98-1.69-1.937-2.515-2.917q-1.626-1.916-3.218-3.859a.881.881 0 01-.126-.519c-.009-1.823-.016-3.647.008-5.469a1.113 1.113 0 01.3-.7q2.4-2.442 4.844-4.847a1.027 1.027 0 01.629-.3q8.268-.024 16.535-.01a1.268 1.268 0 01.228.053l-3.438 4.483c-.565.736-1.139 1.464-1.685 2.213a.965.965 0 00-.1.531c0 1.719-.018 3.438.01 5.156a1.2 1.2 0 00.314.754c2.012 2.045 4.051 4.069 6.08 6.1.933.933 1.857 1.874 2.8 2.8 1.066 1.044 2.164 2.056 3.212 3.117a1.481 1.481 0 01.387.9q.114 2.66.126 5.321a1.424 1.424 0 01-.369.912c-1.547 1.593-3.129 3.154-4.7 4.725a1.6 1.6 0 01-2.251-.119c-.986-1.151-2.006-2.272-3.018-3.405-.345-.387-.7-.767-1.035-1.162a1.25 1.25 0 01.1-1.383c.03-.029.073-.053.091-.088.614-1.224 1.676-1.364 2.882-1.231a7.358 7.358 0 001.569-.006c.252-.026.643-.181.69-.355a1.161 1.161 0 00-.163-.908c-.415-.521-1.071-.888-1.368-1.455-.449-.855-1.021-.748-1.817-.732-3.813.075-7.628.033-11.444.029a2.071 2.071 0 01-.3-.073zm-1.467-19.792h-4.4c-.319 0-.645-.043-.651.444s.292.472.629.472h8.853c.341 0 .629-.008.62-.478-.011-.49-.343-.438-.658-.438zm1.743-2.608h4.269c.342 0 .692.044.677-.483-.015-.493-.353-.431-.664-.431h-8.54c-.323 0-.643-.033-.645.451s.3.465.629.464h4.271zm-1.866 7.168H149c.316 0 .587-.008.595-.441.006-.412-.22-.478-.56-.478q-4.3.009-8.6 0c-.338 0-.568.06-.563.474s.273.446.591.445h4.205zm8.132 11.066h4.276c.332 0 .575-.045.572-.464s-.251-.456-.58-.456q-4.208.008-8.417 0c-.308 0-.591-.008-.6.431-.014.465.264.49.611.488h4.137zm-6.055-8.334H142.6c-.316 0-.587.009-.594.441-.006.414.22.479.56.478q4.115-.009 8.227 0c.338 0 .567-.06.562-.474s-.274-.446-.591-.445h-4.018zm2.2 4.562h4.024c.318 0 .646.044.654-.444s-.288-.474-.629-.473h-8.1c-.34 0-.629 0-.622.477s.341.44.656.44z" transform="translate(-129.989 -91.654)" fill="url(#a)"/><path data-name="Path 142" d="M27.033 38.1c-.834.88-1.562 1.615-2.256 2.389a1.292 1.292 0 00-.287.7c-.045.478.035.97-.025 1.442a1.793 1.793 0 00.578 1.5c1.083 1.2 2.163 2.407 3.322 3.7-.264.019-.433.043-.6.043q-7.324 0-14.649-.013a1.292 1.292 0 01-.81-.319c-.957-.908-1.886-1.845-2.8-2.8a1.987 1.987 0 01-.327-.755c-.038-.112.01-.251-.009-.377a3.37 3.37 0 011.383-3.48 17.9 17.9 0 001.748-1.82.754.754 0 01.482-.207c4.68-.005 9.373-.003 14.25-.003z" fill="#43dde0"/><path data-name="Path 143" d="M31.028 11.296c2.089 1.948 4.068 3.786 6.036 5.636a1.574 1.574 0 01.019 2.056c-.044.045-.107.08-.126.135-.479 1.08-1.383 1.156-2.408 1.1-1.791-.092-3.585-.1-5.38-.142-.118 0-.285.006-.347-.063-.7-.788-1.376-1.6-2.09-2.382a.449.449 0 010-.692c.942-1.2 1.9-2.389 2.828-3.6.485-.631.928-1.293 1.468-2.048z" fill="#80beea"/><path data-name="Path 144" d="M14.807 16.812h4.4c.314 0 .646-.053.658.438.011.47-.279.478-.62.478h-8.853c-.336 0-.635 0-.629-.472s.332-.445.651-.444z"/><path data-name="Path 145" d="M16.546 14.204H12.27c-.331 0-.636.014-.629-.464s.322-.451.645-.451h8.54c.311 0 .649-.062.664.431.015.527-.335.483-.677.483q-2.133-.001-4.267.001z"/><path data-name="Path 146" d="M14.681 21.372h-4.208c-.318 0-.585-.014-.591-.445s.225-.474.563-.474q4.3.009 8.6 0c.34 0 .566.065.56.478-.008.434-.279.441-.595.441-1.437-.002-2.887 0-4.329 0z"/><path data-name="Path 147" d="M22.813 32.44h-4.15c-.347 0-.629-.023-.611-.488.013-.439.3-.431.6-.431h8.417c.326 0 .579.033.58.457s-.24.466-.572.464c-1.42-.006-2.838-.002-4.264-.002z"/><path data-name="Path 148" d="M16.755 24.107h4.024c.317 0 .585.013.591.445s-.224.474-.562.474q-4.115-.008-8.227 0c-.34 0-.566-.064-.56-.478 0-.433.278-.443.594-.441 1.38.002 2.76 0 4.14 0z"/><path data-name="Path 149" d="M18.957 28.667h-4.024c-.316 0-.646.049-.656-.44s.283-.478.622-.477h8.1c.337 0 .629 0 .629.473s-.336.444-.654.444z"/></svg>